<svg width="148" height="32" viewBox="0 0 148 32" fill="none" xmlns="http://www.w3.org/2000/svg">
<path d="M144.88 25.4682V27.3972C144.88 28.42 144.051 29.249 143.027 29.249H137.088C136.064 29.249 135.235 28.42 135.235 27.3972V26.1543C135.235 25.1314 136.064 24.3024 137.088 24.3024H147.59C147.253 22.9104 146.002 21.875 144.505 21.875H135.609C133.854 21.875 132.432 23.2972 132.432 25.05V28.5003C132.432 30.2542 133.854 31.6754 135.609 31.6754H144.505C146.26 31.6754 147.682 30.2531 147.682 28.5003V25.4682H144.879H144.88Z" fill="#FF4E08"/>
<path d="M141.264 8.86523H138.461V15.0724H141.264V8.86523Z" fill="#FF4E08"/>
<path d="M138.433 7.69987H140.52H141.143H143.232H147.676V5.27246H144.966H141.143H140.52H134.761H132.051V7.69987H138.433Z" fill="#FF4E08"/>
<path d="M11.8157 3.91064H8.57227V17.9121H11.8157V3.91064Z" fill="#FF4E08"/>
<path d="M101.888 15.0748H110.783C112.538 15.0748 113.961 13.6536 113.961 11.8998V8.86757H111.158V10.7966C111.158 11.8195 110.328 12.6484 109.304 12.6484H103.365C102.342 12.6484 101.512 11.8195 101.512 10.7966V9.55367C101.512 8.53078 102.342 7.70183 103.365 7.70183H113.868C113.531 6.30982 112.279 5.27441 110.782 5.27441H101.887C100.131 5.27441 98.709 6.69666 98.709 8.44945V11.8998C98.709 13.6536 100.131 15.0748 101.887 15.0748" fill="#FF4E08"/>
<path d="M51.2494 26.1532C51.2494 25.1303 52.079 24.3014 53.1028 24.3014H59.0417C60.0654 24.3014 60.8951 25.1303 60.8951 26.1532V28.0822H63.6981V25.05C63.6981 23.2962 62.2747 21.875 60.5204 21.875H51.6251C49.8698 21.875 48.4474 23.2972 48.4474 25.05V29.249H46.8477V31.6764H65.2989V29.249H51.2505V26.1532H51.2494Z" fill="#FF4E08"/>
<path d="M34.885 11.4806H44.5307V15.0748H47.3337V8.86757H45.7684H35.0197C35.292 8.1846 35.9578 7.70183 36.7384 7.70183H47.2408C46.9038 6.30982 45.6525 5.27441 44.155 5.27441H35.2597C33.5044 5.27441 32.082 6.69562 32.082 8.44945V8.61106V15.0748H34.885V11.4806Z" fill="#FF4E08"/>
<path d="M122.93 25.4678H120.127V31.675H122.93V25.4678Z" fill="#FF4E08"/>
<path d="M51.5012 11.4797H61.1479V15.0739H63.9499V5.27246H61.1479V8.86562H51.5012V5.27246H48.6992V15.0739H51.5012V11.4797Z" fill="#FF4E08"/>
<path d="M69.924 7.69987H80.4264C80.0893 6.30787 78.8381 5.27246 77.3406 5.27246H68.4452C66.69 5.27246 65.2676 6.69367 65.2676 8.44749V11.8988C65.2676 13.6527 66.69 15.0739 68.4452 15.0739H77.3406C78.837 15.0739 80.0883 14.0385 80.4264 12.6475H69.924C68.9002 12.6475 68.0706 11.8186 68.0706 10.7957V9.55276C68.0706 8.52987 68.9002 7.70092 69.924 7.70092" fill="#FF4E08"/>
<path d="M46.0271 21.8742H43.2241V25.4673H34.7462C34.1012 25.4673 33.5784 24.9449 33.5784 24.3005V21.8731H30.7754V24.9053C30.7754 26.6591 32.1988 28.0803 33.953 28.0803H43.0915C42.8192 28.7633 42.1513 29.2471 41.3707 29.2471H36.5786V29.2492C36.5129 29.2471 36.4472 29.2461 36.3814 29.2461H31.7209V31.6735H42.8494C44.6047 31.6735 46.0271 30.2523 46.0271 28.4984V27.2232V21.8721V21.8742Z" fill="#FF4E08"/>
<path d="M27.8584 21.874H15.416V24.3014H27.8584V21.874Z" fill="#FF4E08"/>
<path d="M27.561 25.4673H18.219H15.416V26.6967V30.2899V31.6746H27.561C29.2766 31.6746 30.6677 30.2846 30.6677 28.5704C30.6677 26.8562 29.2766 25.4663 27.561 25.4663M27.2813 29.2482H18.219V28.0814H27.2813C27.6038 28.0814 27.8647 28.3431 27.8647 28.6653C27.8647 28.9875 27.6038 29.2482 27.2813 29.2482Z" fill="#FF4E08"/>
<path d="M84.9007 8.97119H84.1921H82.0977V15.0741H84.9007V8.97119Z" fill="#FF4E08"/>
<path d="M94.5453 8.34218V15.0739H97.3483V7.58414C97.3483 6.30682 96.312 5.27246 95.0347 5.27246H84.4217C83.1381 5.27246 82.0977 6.31204 82.0977 7.59456H93.7981C94.2113 7.59456 94.5463 7.92927 94.5463 8.34218" fill="#FF4E08"/>
<path d="M79.7986 21.8736H76.9955V25.4668H68.5176C67.8727 25.4668 67.3499 24.9444 67.3499 24.3V21.8726H64.5469V24.9047C64.5469 26.6586 65.9703 28.0798 67.7245 28.0798H76.862C76.5896 28.7627 75.9217 29.2466 75.1411 29.2466H70.8771C70.8698 29.2466 70.8625 29.2466 70.8563 29.2466H66.4649V31.674H76.1294H76.6199C78.3751 31.674 79.7975 30.2528 79.7975 28.4989V27.2237V21.8726L79.7986 21.8736Z" fill="#FF4E08"/>
<path d="M100.405 21.8739H97.6016V28.0811H100.405V21.8739Z" fill="#FF4E08"/>
<path d="M100.409 29.249H92.1883V21.875H89.3853V29.249H85.8205C84.7967 29.249 83.9671 28.42 83.9671 27.3972V21.875H81.1641V28.5014C81.1641 30.2552 82.5864 31.6764 84.3417 31.6764H102.775V31.6138C102.775 30.3073 101.716 29.249 100.408 29.249" fill="#FF4E08"/>
<path d="M115.418 21.874H106.451C104.696 21.874 103.273 23.2952 103.273 25.0491V28.5004C103.273 30.2542 104.696 31.6754 106.451 31.6754H115.346C116.843 31.6754 118.095 30.64 118.432 29.248H107.93C106.906 29.248 106.076 28.4191 106.076 27.3962V26.1533C106.076 25.1304 106.906 24.3014 107.93 24.3014H115.138C115.46 24.3014 115.722 24.5632 115.722 24.8843C115.722 25.2055 115.46 25.4682 115.138 25.4682H107.22V28.0823H115.418C117.134 28.0823 118.525 26.6924 118.525 24.9782C118.525 23.2639 117.134 21.874 115.418 21.874Z" fill="#FF4E08"/>
<path d="M17.1864 2.79862H20.7408V0H16.0469C16.0469 0 16.0448 0 16.0437 0H9.30128C9.30128 0 9.29919 0 9.29815 0H0V2.79862H3.55438C3.55438 2.79862 3.55646 2.79862 3.5575 2.79862H17.1833C17.1833 2.79862 17.1854 2.79862 17.1864 2.79862Z" fill="#FF4E08"/>
<path d="M125.827 21.874H124.982H124.017H120.127V24.3014H120.338H122.147H123.57H125.379H125.428H128.661H130.681H131.181V21.874H130.681H125.827Z" fill="#FF4E08"/>
<path d="M17.6117 5.2721H15.416V7.69952H27.2803C27.6028 7.69952 27.8636 7.96019 27.8636 8.28239C27.8636 8.60458 27.6028 8.86526 27.2803 8.86526H15.416V15.0725H18.218V11.4783H27.56C29.2756 11.4783 30.6667 10.0884 30.6667 8.37415C30.6667 6.65994 29.2756 5.27002 27.56 5.27002H17.6106L17.6117 5.2721Z" fill="#FF4E08"/>
<path d="M131.019 8.3768C131.019 6.66259 129.628 5.27267 127.913 5.27267H115.768V7.70008H127.632C127.954 7.70008 128.215 7.9618 128.215 8.28295C128.215 8.6041 127.954 8.86582 127.632 8.86582H115.768V15.0741H118.571V11.4799H127.913C129.628 11.4799 131.019 10.09 131.019 8.37575" fill="#FF4E08"/>
</svg>
